# xmcd CD database file
#
# Track frame offsets:
#	150
#	20672
#	36851
#	50224
#	64593
#	75403
#	91610
#	105436
#	117281
#	130546
#	146775
#	171882
#	193201
#	207901
#	219883
#	235552
#	251539
#	270346
#	292703
#	303602
#	321662
#
# Disc length: 4382 seconds
#
# Revision: 1
# Processed by: cddbd v1.5.2PL0 Copyright (c) Steve Scherf et al.
# Submitted via: CDex 1.70beta2
#
DISCID=24111c15
DTITLE=Various Artist - Rhodentia -  Best of Dark Roots Music [CD1]
DYEAR=2008
DGENRE=Folk
TTITLE0=Strawfoot - Damnation Wav
TTITLE1=Herman Gauce - Careful with that shovel, Slim!
TTITLE2=Black River Brethren - Something Wicked
TTITLE3=O'Death - Adelita
TTITLE4=The Monads - Evil Donkey
TTITLE5=Reverend Glasseye - Blood O' Lambs
TTITLE6=Christian Williams - All Of Her Kin
TTITLE7=The Dad Horse Experience - Gates Of Heaven
TTITLE8=Uncle Sinner - When Jesus Comes
TTITLE9=before you die - Silverfish
TTITLE10=Tom Baxendale - Her Ghost
TTITLE11=Death's Head Hearth
TTITLE12=Jeff Zentner - The Serpent King
TTITLE13=Pinebox Serenade - The Lash
TTITLE14=Creech Holler - Plague of Frogs
TTITLE15=Hank Ray - Endless Plains of Delirious Lands
TTITLE16=Muleskinner Jones - Blood and Muskets
TTITLE17=Chad Parks and the Near Death Experience - Happy Wanderer
TTITLE18=Botanica - How
TTITLE19=Warren Jackson Hearne and the Merrie Murdre of Gloomadeers - Tales of the Barroom Battle
TTITLE20=The Scarring Party - No More Room
EXTD=YEAR: 2008
EXTT0=
EXTT1=
EXTT2=
EXTT3=
EXTT4=
EXTT5=
EXTT6=
EXTT7=
EXTT8=
EXTT9=
EXTT10=
EXTT11=
EXTT12=
EXTT13=
EXTT14=
EXTT15=
EXTT16=
EXTT17=
EXTT18=
EXTT19=
EXTT20=
PLAYORDER=
